<svg xmlns="http://www.w3.org/2000/svg" viewBox="0 0 64 64" role="img" aria-label="RailAI logo">
  <defs>
    <linearGradient id="g" x1="0" x2="1" y1="0" y2="1">
      <stop offset="0%" stop-color="#60a5fa"/>
      <stop offset="100%" stop-color="#1d4ed8"/>
    </linearGradient>
  </defs>
  <rect rx="12" ry="12" width="64" height="64" fill="url(#g)"/>
  <g fill="#fff">
    <path d="M14 44h36a2 2 0 1 1 0 4H14a2 2 0 1 1 0-4z"/>
    <path d="M20 40c0-10 8-18 18-18h8a2 2 0 1 1 0 4h-8c-7.732 0-14 6.268-14 14a2 2 0 1 1-4 0z"/>
    <circle cx="22" cy="48" r="3"/>
    <circle cx="42" cy="48" r="3"/>
  </g>
</svg>

